<svg width="512" height="512" viewBox="0 0 512 512" fill="none" xmlns="http://www.w3.org/2000/svg">
<g clip-path="url(#clip0)">
<path d="M499.99 176H440.12L423.48 134.4C406.38 91.63 365.57 64 319.5 64H192.5C146.44 64 105.62 91.63 88.51 134.4L71.87 176H12.01C4.20003 176 -1.52997 183.34 0.370025 190.91L6.37003 214.91C7.70003 220.25 12.5 224 18.01 224H38.08C24.65 235.73 16 252.78 16 272V320C16 336.12 22.16 350.67 32 361.93V416C32 433.67 46.33 448 64 448H96C113.67 448 128 433.67 128 416V384H384V416C384 433.67 398.33 448 416 448H448C465.67 448 480 433.67 480 416V361.93C489.84 350.68 496 336.13 496 320V272C496 252.78 487.35 235.73 473.93 224H494C499.51 224 504.31 220.25 505.64 214.91L511.64 190.91C513.53 183.34 507.8 176 499.99 176ZM147.93 158.17C155.22 139.95 172.87 128 192.5 128H319.5C339.13 128 356.78 139.95 364.07 158.17L384 208H128L147.93 158.17ZM96 319.8C76.8 319.8 64 307.04 64 287.9C64 268.76 76.8 256 96 256C115.2 256 144 284.71 144 303.85C144 322.99 115.2 319.8 96 319.8ZM416 319.8C396.8 319.8 368 322.99 368 303.85C368 284.71 396.8 256 416 256C435.2 256 448 268.76 448 287.9C448 307.04 435.2 319.8 416 319.8V319.8Z" fill="white"/>
</g>
<defs>
<clipPath id="clip0">
<rect width="512" height="512" fill="white"/>
</clipPath>
</defs>
</svg>
